<svg width="669" height="258" viewBox="0 0 669 258" fill="none" xmlns="http://www.w3.org/2000/svg">
<g filter="url(#filter0_d_30_551)">
<rect x="24" y="20" width="621" height="210" rx="32" fill="#E8820B"/>
</g>
<g filter="url(#filter1_d_30_551)">
<rect x="57" y="49" width="555" height="153" rx="32" fill="#FF961C"/>
</g>
<path d="M196.6 139.3C196.6 141.7 197.033 143.733 197.9 145.4C198.767 147.067 199.9 148.433 201.3 149.5C202.767 150.5 204.467 151.267 206.4 151.8C208.333 152.267 210.333 152.5 212.4 152.5C213.8 152.5 215.3 152.4 216.9 152.2C218.5 151.933 220 151.467 221.4 150.8C222.8 150.133 223.967 149.233 224.9 148.1C225.833 146.9 226.3 145.4 226.3 143.6C226.3 141.667 225.667 140.1 224.4 138.9C223.2 137.7 221.6 136.7 219.6 135.9C217.6 135.1 215.333 134.4 212.8 133.8C210.267 133.2 207.7 132.533 205.1 131.8C202.433 131.133 199.833 130.333 197.3 129.4C194.767 128.4 192.5 127.133 190.5 125.6C188.5 124.067 186.867 122.167 185.6 119.9C184.4 117.567 183.8 114.767 183.8 111.5C183.8 107.833 184.567 104.667 186.1 102C187.7 99.2667 189.767 97 192.3 95.2C194.833 93.4 197.7 92.0667 200.9 91.2C204.1 90.3333 207.3 89.9 210.5 89.9C214.233 89.9 217.8 90.3333 221.2 91.2C224.667 92 227.733 93.3333 230.4 95.2C233.067 97.0667 235.167 99.4667 236.7 102.4C238.3 105.267 239.1 108.767 239.1 112.9H223.9C223.767 110.767 223.3 109 222.5 107.6C221.767 106.2 220.767 105.1 219.5 104.3C218.233 103.5 216.767 102.933 215.1 102.6C213.5 102.267 211.733 102.1 209.8 102.1C208.533 102.1 207.267 102.233 206 102.5C204.733 102.767 203.567 103.233 202.5 103.9C201.5 104.567 200.667 105.4 200 106.4C199.333 107.4 199 108.667 199 110.2C199 111.6 199.267 112.733 199.8 113.6C200.333 114.467 201.367 115.267 202.9 116C204.5 116.733 206.667 117.467 209.4 118.2C212.2 118.933 215.833 119.867 220.3 121C221.633 121.267 223.467 121.767 225.8 122.5C228.2 123.167 230.567 124.267 232.9 125.8C235.233 127.333 237.233 129.4 238.9 132C240.633 134.533 241.5 137.8 241.5 141.8C241.5 145.067 240.867 148.1 239.6 150.9C238.333 153.7 236.433 156.133 233.9 158.2C231.433 160.2 228.333 161.767 224.6 162.9C220.933 164.033 216.667 164.6 211.8 164.6C207.867 164.6 204.033 164.1 200.3 163.1C196.633 162.167 193.367 160.667 190.5 158.6C187.7 156.533 185.467 153.9 183.8 150.7C182.133 147.5 181.333 143.7 181.4 139.3H196.6ZM265.141 104.8H243.741V91.6H302.241V104.8H280.841V163H265.141V104.8ZM317.795 135.4H336.295L327.295 109.2H327.095L317.795 135.4ZM319.295 91.6H335.395L362.095 163H345.795L340.395 147.1H313.695L308.095 163H292.295L319.295 91.6ZM382.452 123.9H399.652C403.252 123.9 405.952 123.1 407.752 121.5C409.552 119.9 410.452 117.3 410.452 113.7C410.452 110.233 409.552 107.733 407.752 106.2C405.952 104.6 403.252 103.8 399.652 103.8H382.452V123.9ZM366.752 91.6H405.252C408.452 91.6 411.318 92.1333 413.852 93.2C416.452 94.2 418.652 95.6 420.452 97.4C422.318 99.2 423.718 101.3 424.652 103.7C425.652 106.033 426.152 108.567 426.152 111.3C426.152 115.5 425.252 119.133 423.452 122.2C421.718 125.267 418.852 127.6 414.852 129.2V129.4C416.785 129.933 418.385 130.767 419.652 131.9C420.918 132.967 421.952 134.267 422.752 135.8C423.552 137.267 424.118 138.9 424.452 140.7C424.852 142.5 425.118 144.3 425.252 146.1C425.318 147.233 425.385 148.567 425.452 150.1C425.518 151.633 425.618 153.2 425.752 154.8C425.952 156.4 426.218 157.933 426.552 159.4C426.952 160.8 427.518 162 428.252 163H412.552C411.685 160.733 411.152 158.033 410.952 154.9C410.752 151.767 410.452 148.767 410.052 145.9C409.518 142.167 408.385 139.433 406.652 137.7C404.918 135.967 402.085 135.1 398.152 135.1H382.452V163H366.752V91.6ZM451.462 104.8H430.062V91.6H488.562V104.8H467.162V163H451.462V104.8Z" fill="black"/>
<defs>
<filter id="filter0_d_30_551" x="0" y="0" width="669" height="258" filterUnits="userSpaceOnUse" color-interpolation-filters="sRGB">
<feFlood flood-opacity="0" result="BackgroundImageFix"/>
<feColorMatrix in="SourceAlpha" type="matrix" values="0 0 0 0 0 0 0 0 0 0 0 0 0 0 0 0 0 0 127 0" result="hardAlpha"/>
<feOffset dy="4"/>
<feGaussianBlur stdDeviation="12"/>
<feComposite in2="hardAlpha" operator="out"/>
<feColorMatrix type="matrix" values="0 0 0 0 0 0 0 0 0 0 0 0 0 0 0 0 0 0 0.25 0"/>
<feBlend mode="normal" in2="BackgroundImageFix" result="effect1_dropShadow_30_551"/>
<feBlend mode="normal" in="SourceGraphic" in2="effect1_dropShadow_30_551" result="shape"/>
</filter>
<filter id="filter1_d_30_551" x="33" y="29" width="603" height="201" filterUnits="userSpaceOnUse" color-interpolation-filters="sRGB">
<feFlood flood-opacity="0" result="BackgroundImageFix"/>
<feColorMatrix in="SourceAlpha" type="matrix" values="0 0 0 0 0 0 0 0 0 0 0 0 0 0 0 0 0 0 127 0" result="hardAlpha"/>
<feOffset dy="4"/>
<feGaussianBlur stdDeviation="12"/>
<feComposite in2="hardAlpha" operator="out"/>
<feColorMatrix type="matrix" values="0 0 0 0 0 0 0 0 0 0 0 0 0 0 0 0 0 0 0.25 0"/>
<feBlend mode="normal" in2="BackgroundImageFix" result="effect1_dropShadow_30_551"/>
<feBlend mode="normal" in="SourceGraphic" in2="effect1_dropShadow_30_551" result="shape"/>
</filter>
</defs>
</svg>
