<svg width="669" height="258" viewBox="0 0 669 258" fill="none" xmlns="http://www.w3.org/2000/svg">
<g filter="url(#filter0_d_30_668)">
<rect x="24" y="20" width="621" height="210" rx="32" fill="#E8820B"/>
</g>
<g filter="url(#filter1_d_30_668)">
<rect x="57" y="49" width="555" height="153" rx="32" fill="#FF961C"/>
</g>
<path d="M115.036 123.9H132.236C135.836 123.9 138.536 123.1 140.336 121.5C142.136 119.9 143.036 117.3 143.036 113.7C143.036 110.233 142.136 107.733 140.336 106.2C138.536 104.6 135.836 103.8 132.236 103.8H115.036V123.9ZM99.3355 91.6H137.836C141.036 91.6 143.902 92.1333 146.436 93.2C149.036 94.2 151.236 95.6 153.036 97.4C154.902 99.2 156.302 101.3 157.236 103.7C158.236 106.033 158.736 108.567 158.736 111.3C158.736 115.5 157.836 119.133 156.036 122.2C154.302 125.267 151.436 127.6 147.436 129.2V129.4C149.369 129.933 150.969 130.767 152.236 131.9C153.502 132.967 154.536 134.267 155.336 135.8C156.136 137.267 156.702 138.9 157.036 140.7C157.436 142.5 157.702 144.3 157.836 146.1C157.902 147.233 157.969 148.567 158.036 150.1C158.102 151.633 158.202 153.2 158.336 154.8C158.536 156.4 158.802 157.933 159.136 159.4C159.536 160.8 160.102 162 160.836 163H145.136C144.269 160.733 143.736 158.033 143.536 154.9C143.336 151.767 143.036 148.767 142.636 145.9C142.102 142.167 140.969 139.433 139.236 137.7C137.502 135.967 134.669 135.1 130.736 135.1H115.036V163H99.3355V91.6ZM170.004 91.6H223.404V104.8H185.704V120.1H220.304V132.3H185.704V149.8H224.204V163H170.004V91.6ZM231.747 129.6H261.847V141.8H231.747V129.6ZM283.27 139.3C283.27 141.7 283.703 143.733 284.57 145.4C285.437 147.067 286.57 148.433 287.97 149.5C289.437 150.5 291.137 151.267 293.07 151.8C295.003 152.267 297.003 152.5 299.07 152.5C300.47 152.5 301.97 152.4 303.57 152.2C305.17 151.933 306.67 151.467 308.07 150.8C309.47 150.133 310.637 149.233 311.57 148.1C312.503 146.9 312.97 145.4 312.97 143.6C312.97 141.667 312.337 140.1 311.07 138.9C309.87 137.7 308.27 136.7 306.27 135.9C304.27 135.1 302.003 134.4 299.47 133.8C296.937 133.2 294.37 132.533 291.77 131.8C289.103 131.133 286.503 130.333 283.97 129.4C281.437 128.4 279.17 127.133 277.17 125.6C275.17 124.067 273.537 122.167 272.27 119.9C271.07 117.567 270.47 114.767 270.47 111.5C270.47 107.833 271.237 104.667 272.77 102C274.37 99.2667 276.437 97 278.97 95.2C281.503 93.4 284.37 92.0667 287.57 91.2C290.77 90.3333 293.97 89.9 297.17 89.9C300.903 89.9 304.47 90.3333 307.87 91.2C311.337 92 314.403 93.3333 317.07 95.2C319.737 97.0667 321.837 99.4667 323.37 102.4C324.97 105.267 325.77 108.767 325.77 112.9H310.57C310.437 110.767 309.97 109 309.17 107.6C308.437 106.2 307.437 105.1 306.17 104.3C304.903 103.5 303.437 102.933 301.77 102.6C300.17 102.267 298.403 102.1 296.47 102.1C295.203 102.1 293.937 102.233 292.67 102.5C291.403 102.767 290.237 103.233 289.17 103.9C288.17 104.567 287.337 105.4 286.67 106.4C286.003 107.4 285.67 108.667 285.67 110.2C285.67 111.6 285.937 112.733 286.47 113.6C287.003 114.467 288.037 115.267 289.57 116C291.17 116.733 293.337 117.467 296.07 118.2C298.87 118.933 302.503 119.867 306.97 121C308.303 121.267 310.137 121.767 312.47 122.5C314.87 123.167 317.237 124.267 319.57 125.8C321.903 127.333 323.903 129.4 325.57 132C327.303 134.533 328.17 137.8 328.17 141.8C328.17 145.067 327.537 148.1 326.27 150.9C325.003 153.7 323.103 156.133 320.57 158.2C318.103 160.2 315.003 161.767 311.27 162.9C307.603 164.033 303.337 164.6 298.47 164.6C294.537 164.6 290.703 164.1 286.97 163.1C283.303 162.167 280.037 160.667 277.17 158.6C274.37 156.533 272.137 153.9 270.47 150.7C268.803 147.5 268.003 143.7 268.07 139.3H283.27ZM351.811 104.8H330.411V91.6H388.911V104.8H367.511V163H351.811V104.8ZM404.464 135.4H422.964L413.964 109.2H413.764L404.464 135.4ZM405.964 91.6H422.064L448.764 163H432.464L427.064 147.1H400.364L394.764 163H378.964L405.964 91.6ZM469.121 123.9H486.321C489.921 123.9 492.621 123.1 494.421 121.5C496.221 119.9 497.121 117.3 497.121 113.7C497.121 110.233 496.221 107.733 494.421 106.2C492.621 104.6 489.921 103.8 486.321 103.8H469.121V123.9ZM453.421 91.6H491.921C495.121 91.6 497.988 92.1333 500.521 93.2C503.121 94.2 505.321 95.6 507.121 97.4C508.988 99.2 510.388 101.3 511.321 103.7C512.321 106.033 512.821 108.567 512.821 111.3C512.821 115.5 511.921 119.133 510.121 122.2C508.388 125.267 505.521 127.6 501.521 129.2V129.4C503.455 129.933 505.055 130.767 506.321 131.9C507.588 132.967 508.621 134.267 509.421 135.8C510.221 137.267 510.788 138.9 511.121 140.7C511.521 142.5 511.788 144.3 511.921 146.1C511.988 147.233 512.055 148.567 512.121 150.1C512.188 151.633 512.288 153.2 512.421 154.8C512.621 156.4 512.888 157.933 513.221 159.4C513.621 160.8 514.188 162 514.921 163H499.221C498.355 160.733 497.821 158.033 497.621 154.9C497.421 151.767 497.121 148.767 496.721 145.9C496.188 142.167 495.055 139.433 493.321 137.7C491.588 135.967 488.755 135.1 484.821 135.1H469.121V163H453.421V91.6ZM538.132 104.8H516.732V91.6H575.232V104.8H553.832V163H538.132V104.8Z" fill="black"/>
<defs>
<filter id="filter0_d_30_668" x="0" y="0" width="669" height="258" filterUnits="userSpaceOnUse" color-interpolation-filters="sRGB">
<feFlood flood-opacity="0" result="BackgroundImageFix"/>
<feColorMatrix in="SourceAlpha" type="matrix" values="0 0 0 0 0 0 0 0 0 0 0 0 0 0 0 0 0 0 127 0" result="hardAlpha"/>
<feOffset dy="4"/>
<feGaussianBlur stdDeviation="12"/>
<feComposite in2="hardAlpha" operator="out"/>
<feColorMatrix type="matrix" values="0 0 0 0 0 0 0 0 0 0 0 0 0 0 0 0 0 0 0.25 0"/>
<feBlend mode="normal" in2="BackgroundImageFix" result="effect1_dropShadow_30_668"/>
<feBlend mode="normal" in="SourceGraphic" in2="effect1_dropShadow_30_668" result="shape"/>
</filter>
<filter id="filter1_d_30_668" x="33" y="29" width="603" height="201" filterUnits="userSpaceOnUse" color-interpolation-filters="sRGB">
<feFlood flood-opacity="0" result="BackgroundImageFix"/>
<feColorMatrix in="SourceAlpha" type="matrix" values="0 0 0 0 0 0 0 0 0 0 0 0 0 0 0 0 0 0 127 0" result="hardAlpha"/>
<feOffset dy="4"/>
<feGaussianBlur stdDeviation="12"/>
<feComposite in2="hardAlpha" operator="out"/>
<feColorMatrix type="matrix" values="0 0 0 0 0 0 0 0 0 0 0 0 0 0 0 0 0 0 0.25 0"/>
<feBlend mode="normal" in2="BackgroundImageFix" result="effect1_dropShadow_30_668"/>
<feBlend mode="normal" in="SourceGraphic" in2="effect1_dropShadow_30_668" result="shape"/>
</filter>
</defs>
</svg>
