<svg width="197" height="216" viewBox="0 0 197 216" fill="none" xmlns="http://www.w3.org/2000/svg">
<path d="M181.129 181.081C169.298 184.452 157.262 182.044 145.164 182.182C152.333 188.464 160.709 192.807 168.621 197.827C168.617 198.037 168.608 198.246 168.603 198.456C166.907 198.621 165.188 199.058 163.518 198.902C158.803 198.456 154.061 198.015 149.421 197.114C143.69 195.995 138.048 194.408 132.367 193.039C131.962 192.941 131.534 192.958 130.973 193.164C136.953 199.789 144.799 203.993 151.732 209.513C139.077 210.262 127.576 205.826 116.016 201.653C115.896 201.849 115.771 202.041 115.651 202.237C120.758 206.651 125.87 211.065 131.476 215.911C129.495 215.911 128.039 216.139 126.685 215.871C121.391 214.819 116.123 213.637 110.86 212.456C102.275 210.525 94.38 206.874 87.407 201.626C81.5605 197.225 76.2483 192.116 70.7447 187.265C68.1888 185.009 65.762 182.61 63.2506 180.305C62.6718 179.774 61.9905 179.36 60.7437 178.437C61.2291 183.141 61.6476 187.194 62.1107 191.661C56.3666 190.368 53.3476 185.539 48.4407 183.011C49.8344 187.515 51.2326 192.013 52.751 196.922C45.8581 195.995 41.1737 191.304 35.0289 188.313C35.8393 192.95 38.2483 196.427 40.1095 200.65C39.1477 200.476 38.551 200.436 37.9989 200.257C32.2593 198.398 27.2143 195.232 22.8416 191.211C18.4334 187.158 14.1542 182.873 10.4006 178.218C4.97261 171.49 3.9173 163.394 5.596 155.177C7.58194 145.443 9.8306 135.733 12.667 126.218C17.5918 109.704 16.6523 93.733 10.031 77.8961C6.09471 68.4395 2.44343 58.8357 0.889408 48.63C-0.557746 39.1154 -0.566652 29.6766 3.36515 20.6124C6.71365 12.8901 12.5602 7.62454 19.934 3.94176C31.9743 -2.07286 43.93 -0.900251 55.3247 5.39525C63.6068 9.97421 71.515 15.271 79.3831 20.5544C93.0041 29.7034 107.676 35.4995 124.2 36.7836C141.677 38.1435 158.282 42.7536 172.584 53.4007C176.921 56.6287 180.924 60.6102 184.184 64.9217C188.677 70.8605 192.328 77.4458 196.322 83.7591C196.598 84.1916 196.785 84.691 196.968 85.177C197.039 85.3642 196.981 85.6005 196.981 86.2113C191.281 82.2566 185.787 78.4445 180.296 74.6369C180.118 74.8286 179.936 75.0248 179.758 75.2165C182.296 81.9846 187.822 87.9056 186.067 96.5998C180.711 92.8814 175.781 89.4616 170.857 86.0375C170.674 86.1578 170.496 86.2782 170.313 86.4031C170.963 88.5343 171.68 90.6476 172.25 92.8011C173.323 96.8718 174.815 100.876 173.991 105.241C173.644 107.082 172.963 107.479 171.302 106.596C167.067 104.349 162.793 102.186 158.024 99.7297C161.096 106.159 166.052 111.304 166.128 119.035C159.809 115.353 153.936 111.928 148.067 108.509C147.849 108.767 147.626 109.026 147.408 109.284C149.042 111.095 150.383 113.373 152.364 114.635C165.251 122.812 178.279 130.766 191.264 138.782C193.129 139.933 195.035 141.025 196.923 142.144C196.923 142.394 196.919 142.648 196.914 142.898C195.494 143.219 194.078 143.785 192.648 143.825C184.353 144.052 176.053 144.164 167.753 144.307C166.448 144.329 165.144 144.307 163.839 144.307L163.63 144.891C171.925 149.501 180.216 154.111 189.042 159.015C187.88 159.889 187.14 160.812 186.219 161.071C181.601 162.364 176.997 163.964 172.273 164.548C165.157 165.427 157.943 165.556 150.592 166.011C160.869 170.764 171.124 175.503 181.378 180.243C181.298 180.519 181.214 180.8 181.134 181.076L181.129 181.081ZM64.5865 46.9358C67.3383 47.1141 69.4445 46.0262 71.0029 43.7479C73.2605 40.4352 73.6212 37.06 71.5105 33.5422C69.253 29.7792 65.9713 27.7951 61.5497 28.2187C56.5403 28.6958 53.7706 31.4467 53.7484 35.6511C53.7172 41.7237 58.5307 46.7351 64.5865 46.9358ZM28.1182 51.3899C22.7348 51.7555 19.1369 53.7529 19.1191 58.9739C19.0968 64.9573 23.9593 70.0535 29.9972 70.2051C34.3476 70.3165 38.0924 66.4599 38.1948 61.7605C38.3106 56.4102 33.5639 51.5281 28.1182 51.3899ZM65.6774 79.4388C67.9661 79.4744 69.5112 78.3821 69.0125 76.6655C68.4114 74.6057 67.4674 72.4879 66.1049 70.8739C65.4236 70.0624 63.2907 69.8083 62.1731 70.2363C61.1534 70.6242 60.1203 72.207 59.96 73.384C59.5949 76.019 63.0235 79.3942 65.6818 79.4343L65.6774 79.4388Z" fill="white"/>
</svg>
