<svg width="191" height="224" viewBox="0 0 191 224" fill="none" xmlns="http://www.w3.org/2000/svg">
<path d="M65.095 221.29C58.0494 211.206 56.3992 199.043 52.3221 187.652C48.7221 196.478 47.3492 205.812 45.1845 214.929C44.985 214.993 44.784 215.053 44.5844 215.118C43.8751 213.568 42.9014 212.085 42.5042 210.456C41.3875 205.853 40.2578 201.226 39.5957 196.546C38.7842 190.764 38.4443 184.913 37.8848 179.096C37.8454 178.681 37.6891 178.283 37.3122 177.819C32.9999 185.633 31.5847 194.421 28.6285 202.776C23.7924 191.057 24.2342 178.738 24.4084 166.449C24.1838 166.4 23.9619 166.344 23.7372 166.295C21.2307 172.563 18.7256 178.835 15.9729 185.715C15.3266 183.842 14.6367 182.54 14.448 181.173C13.7156 175.825 13.1142 170.46 12.5142 165.099C11.5388 156.354 12.4153 147.7 15.1014 139.397C17.3541 132.434 20.4513 125.746 23.2416 118.961C24.5405 115.809 26.0164 112.733 27.3762 109.607C27.6889 108.886 27.8586 108.107 28.3244 106.627C24.0362 108.621 20.3416 110.338 16.2695 112.233C15.6181 106.382 19.1978 101.953 19.9868 96.4896C16.1846 99.276 12.3881 102.065 8.24303 105.102C6.8712 98.2834 9.77705 92.3253 10.6006 85.5407C6.48172 87.8193 3.98006 91.231 0.595894 94.3677C0.446531 93.4018 0.28983 92.8247 0.278308 92.2446C0.163553 86.2124 1.5103 80.4107 3.88559 74.9654C6.27876 69.4763 8.9332 64.0335 12.1089 58.9668C16.6982 51.6411 24.0079 48.0023 32.3231 46.9087C42.1716 45.6111 52.0848 44.5691 62.0041 44.1467C79.2218 43.415 94.0124 37.3172 106.823 25.8921C114.478 19.0864 122.366 12.5021 131.506 7.70395C140.028 3.23228 148.948 0.144912 158.799 0.904868C167.191 1.55119 174.076 5.36025 179.963 11.1294C189.576 20.5491 192.367 32.2334 190.133 45.0584C188.506 54.3812 186.079 63.5846 183.651 72.7457C179.446 88.6061 178.753 104.366 182.929 120.405C187.345 137.37 188.403 154.57 183.004 171.563C181.367 176.716 178.909 181.799 175.897 186.286C171.748 192.471 166.714 198.071 162.049 203.906C161.73 204.308 161.319 204.647 160.92 204.978C160.766 205.107 160.523 205.129 159.946 205.328C161.825 198.651 163.636 192.213 165.445 185.781C165.206 185.675 164.961 185.567 164.721 185.461C159.151 190.068 155.357 197.223 146.566 198.4C148.333 192.124 149.958 186.349 151.589 180.576C151.415 180.443 151.243 180.314 151.066 180.182C149.263 181.492 147.499 182.859 145.65 184.1C142.152 186.442 138.853 189.159 134.459 189.804C132.605 190.076 132.007 189.561 132.3 187.703C133.043 182.967 133.693 178.221 134.459 172.912C129.384 177.913 126.137 184.277 118.853 186.87C120.273 179.696 121.594 173.027 122.913 166.364C122.597 166.242 122.28 166.116 121.964 165.994C120.786 168.129 119.07 170.139 118.523 172.424C114.997 187.273 111.728 202.184 108.386 217.073C107.907 219.212 107.496 221.369 107.054 223.519C106.818 223.601 106.576 223.679 106.339 223.757C105.572 222.518 104.575 221.365 104.071 220.027C101.15 212.259 98.3368 204.449 95.4944 196.65C95.0478 195.424 94.6433 194.183 94.2177 192.95L93.5973 192.943C91.9453 202.288 90.2919 211.63 88.5346 221.572C87.3294 220.759 86.2158 220.361 85.6707 219.574C82.9422 215.631 79.9273 211.801 77.834 207.525C74.6826 201.085 72.2074 194.309 69.3794 187.508C68.2389 198.773 67.1038 210.013 65.9687 221.253C65.6812 221.267 65.3881 221.279 65.1007 221.293L65.095 221.29ZM153.886 67.3641C154.615 70.0236 156.33 71.6597 158.993 72.3897C162.86 73.4432 166.169 72.6831 168.806 69.5405C171.626 66.1789 172.431 62.4295 170.589 58.3879C168.504 53.8081 165 52.0874 161.018 53.4378C155.267 55.3892 152.1 61.5741 153.886 67.3641ZM137.779 34.3436C135.678 29.3739 132.616 26.6244 127.675 28.3107C122.011 30.2414 118.78 36.5003 120.606 42.2574C121.92 46.4062 126.787 48.6881 131.263 47.252C136.359 45.6161 139.425 39.5365 137.779 34.3436ZM123.517 78.9979C124.23 81.1731 125.766 82.2774 127.226 81.246C128.977 80.0058 130.671 78.4226 131.753 76.6081C132.297 75.6994 131.842 73.6003 131.073 72.6834C130.373 71.846 128.54 71.3858 127.375 71.6182C124.765 72.1326 122.693 76.4747 123.522 79.0007L123.517 78.9979Z" fill="white"/>
</svg>
